ISO-10303-21;
HEADER;
/* Generated by software containing ST-Developer
 * from STEP Tools, Inc. (www.steptools.com) 
 */

FILE_DESCRIPTION(
/* description */ (''),
/* implementation_level */ '2;1');

FILE_NAME(
/* name */ 'Gondola Sliding system.step',
/* time_stamp */ '2026-09-26T03:40:53+05:30',
/* author */ (''),
/* organization */ (''),
/* preprocessor_version */ 'ST-DEVELOPER v20.2',
/* originating_system */ 'Autodesk Translation Framework v15.15.0.0',
/* authorisation */ '');

FILE_SCHEMA (('AUTOMOTIVE_DESIGN { 1 0 10303 214 3 1 1 }'));
ENDSEC;

DATA;
#10=MECHANICAL_DESIGN_GEOMETRIC_PRESENTATION_REPRESENTATION('',(#13),#1007);
#11=SHAPE_REPRESENTATION_RELATIONSHIP('SRR','None',#1014,#12);
#12=ADVANCED_BREP_SHAPE_REPRESENTATION('',(#14),#1006);
#13=STYLED_ITEM('',(#1023),#14);
#14=MANIFOLD_SOLID_BREP('Body3',#567);
#15=TOROIDAL_SURFACE('',#597,5.32,0.3);
#16=TOROIDAL_SURFACE('',#603,5.32,0.3);
#17=TOROIDAL_SURFACE('',#609,2.225,1.);
#18=TOROIDAL_SURFACE('',#617,2.225,1.);
#19=TOROIDAL_SURFACE('',#625,2.225,1.);
#20=TOROIDAL_SURFACE('',#633,2.225,1.);
#21=FACE_BOUND('',#115,.T.);
#22=FACE_BOUND('',#116,.T.);
#23=FACE_BOUND('',#136,.T.);
#24=FACE_BOUND('',#137,.T.);
#25=FACE_BOUND('',#138,.T.);
#26=FACE_BOUND('',#139,.T.);
#27=CIRCLE('',#590,5.32);
#28=CIRCLE('',#591,5.32);
#29=CIRCLE('',#598,0.3);
#30=CIRCLE('',#599,5.02);
#31=CIRCLE('',#600,5.02);
#32=CIRCLE('',#602,5.02);
#33=CIRCLE('',#604,0.3);
#34=CIRCLE('',#605,5.02);
#35=CIRCLE('',#606,5.02);
#36=CIRCLE('',#608,5.02);
#37=CIRCLE('',#610,2.225);
#38=CIRCLE('',#611,1.);
#39=CIRCLE('',#612,3.225);
#40=CIRCLE('',#613,3.225);
#41=CIRCLE('',#616,3.225);
#42=CIRCLE('',#618,2.225);
#43=CIRCLE('',#619,1.);
#44=CIRCLE('',#620,3.225);
#45=CIRCLE('',#621,3.225);
#46=CIRCLE('',#624,3.225);
#47=CIRCLE('',#626,2.225);
#48=CIRCLE('',#627,1.);
#49=CIRCLE('',#628,3.225);
#50=CIRCLE('',#629,3.225);
#51=CIRCLE('',#632,3.225);
#52=CIRCLE('',#634,2.225);
#53=CIRCLE('',#635,1.);
#54=CIRCLE('',#636,3.225);
#55=CIRCLE('',#637,3.225);
#56=CIRCLE('',#640,3.225);
#57=PLANE('',#586);
#58=PLANE('',#587);
#59=PLANE('',#589);
#60=PLANE('',#596);
#61=PLANE('',#614);
#62=PLANE('',#622);
#63=PLANE('',#630);
#64=PLANE('',#638);
#65=PLANE('',#641);
#66=PLANE('',#642);
#67=PLANE('',#643);
#68=PLANE('',#644);
#69=PLANE('',#645);
#70=PLANE('',#646);
#71=PLANE('',#647);
#72=PLANE('',#648);
#73=PLANE('',#649);
#74=PLANE('',#650);
#75=PLANE('',#651);
#76=PLANE('',#652);
#77=FACE_OUTER_BOUND('',#111,.T.);
#78=FACE_OUTER_BOUND('',#112,.T.);
#79=FACE_OUTER_BOUND('',#113,.T.);
#80=FACE_OUTER_BOUND('',#114,.T.);
#81=FACE_OUTER_BOUND('',#117,.T.);
#82=FACE_OUTER_BOUND('',#118,.T.);
#83=FACE_OUTER_BOUND('',#119,.T.);
#84=FACE_OUTER_BOUND('',#120,.T.);
#85=FACE_OUTER_BOUND('',#121,.T.);
#86=FACE_OUTER_BOUND('',#122,.T.);
#87=FACE_OUTER_BOUND('',#123,.T.);
#88=FACE_OUTER_BOUND('',#124,.T.);
#89=FACE_OUTER_BOUND('',#125,.T.);
#90=FACE_OUTER_BOUND('',#126,.T.);
#91=FACE_OUTER_BOUND('',#127,.T.);
#92=FACE_OUTER_BOUND('',#128,.T.);
#93=FACE_OUTER_BOUND('',#129,.T.);
#94=FACE_OUTER_BOUND('',#130,.T.);
#95=FACE_OUTER_BOUND('',#131,.T.);
#96=FACE_OUTER_BOUND('',#132,.T.);
#97=FACE_OUTER_BOUND('',#133,.T.);
#98=FACE_OUTER_BOUND('',#134,.T.);
#99=FACE_OUTER_BOUND('',#135,.T.);
#100=FACE_OUTER_BOUND('',#140,.T.);
#101=FACE_OUTER_BOUND('',#141,.T.);
#102=FACE_OUTER_BOUND('',#142,.T.);
#103=FACE_OUTER_BOUND('',#143,.T.);
#104=FACE_OUTER_BOUND('',#144,.T.);
#105=FACE_OUTER_BOUND('',#145,.T.);
#106=FACE_OUTER_BOUND('',#146,.T.);
#107=FACE_OUTER_BOUND('',#147,.T.);
#108=FACE_OUTER_BOUND('',#148,.T.);
#109=FACE_OUTER_BOUND('',#149,.T.);
#110=FACE_OUTER_BOUND('',#150,.T.);
#111=EDGE_LOOP('',(#369,#370,#371,#372,#373,#374));
#112=EDGE_LOOP('',(#375,#376,#377,#378,#379));
#113=EDGE_LOOP('',(#380,#381,#382,#383,#384,#385));
#114=EDGE_LOOP('',(#386,#387,#388,#389));
#115=EDGE_LOOP('',(#390));
#116=EDGE_LOOP('',(#391));
#117=EDGE_LOOP('',(#392,#393,#394,#395,#396,#397));
#118=EDGE_LOOP('',(#398,#399,#400,#401,#402));
#119=EDGE_LOOP('',(#403,#404,#405,#406,#407));
#120=EDGE_LOOP('',(#408,#409,#410,#411,#412));
#121=EDGE_LOOP('',(#413,#414,#415,#416,#417));
#122=EDGE_LOOP('',(#418,#419,#420,#421,#422));
#123=EDGE_LOOP('',(#423,#424,#425,#426,#427));
#124=EDGE_LOOP('',(#428));
#125=EDGE_LOOP('',(#429,#430,#431,#432,#433));
#126=EDGE_LOOP('',(#434,#435,#436,#437,#438));
#127=EDGE_LOOP('',(#439));
#128=EDGE_LOOP('',(#440,#441,#442,#443,#444));
#129=EDGE_LOOP('',(#445,#446,#447,#448,#449));
#130=EDGE_LOOP('',(#450));
#131=EDGE_LOOP('',(#451,#452,#453,#454,#455));
#132=EDGE_LOOP('',(#456,#457,#458,#459,#460));
#133=EDGE_LOOP('',(#461));
#134=EDGE_LOOP('',(#462,#463,#464,#465,#466));
#135=EDGE_LOOP('',(#467,#468,#469,#470));
#136=EDGE_LOOP('',(#471));
#137=EDGE_LOOP('',(#472));
#138=EDGE_LOOP('',(#473));
#139=EDGE_LOOP('',(#474));
#140=EDGE_LOOP('',(#475,#476,#477,#478,#479,#480));
#141=EDGE_LOOP('',(#481,#482,#483,#484,#485,#486));
#142=EDGE_LOOP('',(#487));
#143=EDGE_LOOP('',(#488));
#144=EDGE_LOOP('',(#489,#490,#491,#492));
#145=EDGE_LOOP('',(#493,#494,#495,#496));
#146=EDGE_LOOP('',(#497,#498,#499,#500,#501));
#147=EDGE_LOOP('',(#502,#503,#504,#505,#506,#507));
#148=EDGE_LOOP('',(#508,#509,#510,#511,#512));
#149=EDGE_LOOP('',(#513,#514,#515,#516,#517,#518));
#150=EDGE_LOOP('',(#519,#520,#521,#522,#523,#524));
#151=LINE('',#845,#191);
#152=LINE('',#851,#192);
#153=LINE('',#855,#193);
#154=LINE('',#857,#194);
#155=LINE('',#859,#195);
#156=LINE('',#860,#196);
#157=LINE('',#863,#197);
#158=LINE('',#867,#198);
#159=LINE('',#868,#199);
#160=LINE('',#871,#200);
#161=LINE('',#872,#201);
#162=LINE('',#882,#202);
#163=LINE('',#887,#203);
#164=LINE('',#889,#204);
#165=LINE('',#890,#205);
#166=LINE('',#899,#206);
#167=LINE('',#909,#207);
#168=LINE('',#923,#208);
#169=LINE('',#936,#209);
#170=LINE('',#949,#210);
#171=LINE('',#962,#211);
#172=LINE('',#966,#212);
#173=LINE('',#968,#213);
#174=LINE('',#970,#214);
#175=LINE('',#971,#215);
#176=LINE('',#973,#216);
#177=LINE('',#974,#217);
#178=LINE('',#977,#218);
#179=LINE('',#979,#219);
#180=LINE('',#980,#220);
#181=LINE('',#985,#221);
#182=LINE('',#986,#222);
#183=LINE('',#988,#223);
#184=LINE('',#991,#224);
#185=LINE('',#993,#225);
#186=LINE('',#994,#226);
#187=LINE('',#997,#227);
#188=LINE('',#998,#228);
#189=LINE('',#1000,#229);
#190=LINE('',#1002,#230);
#191=VECTOR('',#659,10.);
#192=VECTOR('',#664,10.);
#193=VECTOR('',#669,10.);
#194=VECTOR('',#670,10.);
#195=VECTOR('',#671,10.);
#196=VECTOR('',#672,10.);
#197=VECTOR('',#675,10.);
#198=VECTOR('',#678,10.);
#199=VECTOR('',#679,10.);
#200=VECTOR('',#682,10.);
#201=VECTOR('',#683,10.);
#202=VECTOR('',#692,10.);
#203=VECTOR('',#699,10.);
#204=VECTOR('',#700,10.);
#205=VECTOR('',#701,10.);
#206=VECTOR('',#712,5.02);
#207=VECTOR('',#725,5.02);
#208=VECTOR('',#744,3.225);
#209=VECTOR('',#761,3.225);
#210=VECTOR('',#778,3.225);
#211=VECTOR('',#795,3.225);
#212=VECTOR('',#798,10.);
#213=VECTOR('',#799,10.);
#214=VECTOR('',#800,10.);
#215=VECTOR('',#801,10.);
#216=VECTOR('',#804,10.);
#217=VECTOR('',#805,10.);
#218=VECTOR('',#808,10.);
#219=VECTOR('',#809,10.);
#220=VECTOR('',#810,10.);
#221=VECTOR('',#817,10.);
#222=VECTOR('',#818,10.);
#223=VECTOR('',#821,10.);
#224=VECTOR('',#824,10.);
#225=VECTOR('',#825,10.);
#226=VECTOR('',#826,10.);
#227=VECTOR('',#829,10.);
#228=VECTOR('',#830,10.);
#229=VECTOR('',#833,10.);
#230=VECTOR('',#836,10.);
#231=ELLIPSE('',#582,7.07106781186548,5.);
#232=ELLIPSE('',#583,7.07106781186547,5.);
#233=ELLIPSE('',#584,7.07106781186547,5.);
#234=ELLIPSE('',#585,7.07106781186548,5.);
#235=ELLIPSE('',#588,7.07106781186548,5.);
#236=ELLIPSE('',#593,7.07106781186547,5.);
#237=ELLIPSE('',#594,7.07106781186548,5.);
#238=ELLIPSE('',#595,7.07106781186547,5.);
#239=VERTEX_POINT('',#841);
#240=VERTEX_POINT('',#842);
#241=VERTEX_POINT('',#844);
#242=VERTEX_POINT('',#846);
#243=VERTEX_POINT('',#848);
#244=VERTEX_POINT('',#850);
#245=VERTEX_POINT('',#854);
#246=VERTEX_POINT('',#856);
#247=VERTEX_POINT('',#858);
#248=VERTEX_POINT('',#862);
#249=VERTEX_POINT('',#864);
#250=VERTEX_POINT('',#866);
#251=VERTEX_POINT('',#870);
#252=VERTEX_POINT('',#873);
#253=VERTEX_POINT('',#875);
#254=VERTEX_POINT('',#878);
#255=VERTEX_POINT('',#879);
#256=VERTEX_POINT('',#881);
#257=VERTEX_POINT('',#886);
#258=VERTEX_POINT('',#888);
#259=VERTEX_POINT('',#892);
#260=VERTEX_POINT('',#894);
#261=VERTEX_POINT('',#898);
#262=VERTEX_POINT('',#902);
#263=VERTEX_POINT('',#904);
#264=VERTEX_POINT('',#908);
#265=VERTEX_POINT('',#912);
#266=VERTEX_POINT('',#914);
#267=VERTEX_POINT('',#916);
#268=VERTEX_POINT('',#921);
#269=VERTEX_POINT('',#925);
#270=VERTEX_POINT('',#927);
#271=VERTEX_POINT('',#929);
#272=VERTEX_POINT('',#934);
#273=VERTEX_POINT('',#938);
#274=VERTEX_POINT('',#940);
#275=VERTEX_POINT('',#942);
#276=VERTEX_POINT('',#947);
#277=VERTEX_POINT('',#951);
#278=VERTEX_POINT('',#953);
#279=VERTEX_POINT('',#955);
#280=VERTEX_POINT('',#960);
#281=VERTEX_POINT('',#964);
#282=VERTEX_POINT('',#965);
#283=VERTEX_POINT('',#967);
#284=VERTEX_POINT('',#969);
#285=VERTEX_POINT('',#976);
#286=VERTEX_POINT('',#978);
#287=VERTEX_POINT('',#984);
#288=VERTEX_POINT('',#990);
#289=VERTEX_POINT('',#992);
#290=VERTEX_POINT('',#996);
#291=EDGE_CURVE('',#239,#240,#231,.T.);
#292=EDGE_CURVE('',#240,#241,#151,.T.);
#293=EDGE_CURVE('',#241,#242,#232,.T.);
#294=EDGE_CURVE('',#242,#243,#233,.T.);
#295=EDGE_CURVE('',#243,#244,#152,.T.);
#296=EDGE_CURVE('',#244,#239,#234,.T.);
#297=EDGE_CURVE('',#245,#239,#153,.T.);
#298=EDGE_CURVE('',#245,#246,#154,.T.);
#299=EDGE_CURVE('',#246,#247,#155,.T.);
#300=EDGE_CURVE('',#247,#240,#156,.T.);
#301=EDGE_CURVE('',#244,#248,#157,.T.);
#302=EDGE_CURVE('',#249,#248,#235,.T.);
#303=EDGE_CURVE('',#250,#249,#158,.T.);
#304=EDGE_CURVE('',#250,#245,#159,.T.);
#305=EDGE_CURVE('',#251,#243,#160,.T.);
#306=EDGE_CURVE('',#248,#251,#161,.T.);
#307=EDGE_CURVE('',#252,#252,#27,.T.);
#308=EDGE_CURVE('',#253,#253,#28,.T.);
#309=EDGE_CURVE('',#254,#255,#236,.T.);
#310=EDGE_CURVE('',#255,#256,#162,.T.);
#311=EDGE_CURVE('',#256,#249,#237,.T.);
#312=EDGE_CURVE('',#251,#254,#238,.T.);
#313=EDGE_CURVE('',#256,#257,#163,.T.);
#314=EDGE_CURVE('',#257,#258,#164,.T.);
#315=EDGE_CURVE('',#258,#250,#165,.T.);
#316=EDGE_CURVE('',#253,#259,#29,.T.);
#317=EDGE_CURVE('',#259,#260,#30,.T.);
#318=EDGE_CURVE('',#260,#259,#31,.T.);
#319=EDGE_CURVE('',#260,#261,#166,.T.);
#320=EDGE_CURVE('',#261,#261,#32,.T.);
#321=EDGE_CURVE('',#252,#262,#33,.T.);
#322=EDGE_CURVE('',#262,#263,#34,.T.);
#323=EDGE_CURVE('',#263,#262,#35,.T.);
#324=EDGE_CURVE('',#263,#264,#167,.T.);
#325=EDGE_CURVE('',#264,#264,#36,.T.);
#326=EDGE_CURVE('',#265,#265,#37,.T.);
#327=EDGE_CURVE('',#265,#266,#38,.T.);
#328=EDGE_CURVE('',#266,#267,#39,.T.);
#329=EDGE_CURVE('',#267,#266,#40,.T.);
#330=EDGE_CURVE('',#268,#268,#41,.T.);
#331=EDGE_CURVE('',#268,#267,#168,.T.);
#332=EDGE_CURVE('',#269,#269,#42,.T.);
#333=EDGE_CURVE('',#269,#270,#43,.T.);
#334=EDGE_CURVE('',#270,#271,#44,.T.);
#335=EDGE_CURVE('',#271,#270,#45,.T.);
#336=EDGE_CURVE('',#272,#272,#46,.T.);
#337=EDGE_CURVE('',#272,#271,#169,.T.);
#338=EDGE_CURVE('',#273,#273,#47,.T.);
#339=EDGE_CURVE('',#273,#274,#48,.T.);
#340=EDGE_CURVE('',#274,#275,#49,.T.);
#341=EDGE_CURVE('',#275,#274,#50,.T.);
#342=EDGE_CURVE('',#276,#276,#51,.T.);
#343=EDGE_CURVE('',#276,#275,#170,.T.);
#344=EDGE_CURVE('',#277,#277,#52,.T.);
#345=EDGE_CURVE('',#277,#278,#53,.T.);
#346=EDGE_CURVE('',#278,#279,#54,.T.);
#347=EDGE_CURVE('',#279,#278,#55,.T.);
#348=EDGE_CURVE('',#280,#280,#56,.T.);
#349=EDGE_CURVE('',#280,#279,#171,.T.);
#350=EDGE_CURVE('',#281,#282,#172,.T.);
#351=EDGE_CURVE('',#283,#281,#173,.T.);
#352=EDGE_CURVE('',#284,#283,#174,.T.);
#353=EDGE_CURVE('',#282,#284,#175,.T.);
#354=EDGE_CURVE('',#246,#281,#176,.T.);
#355=EDGE_CURVE('',#283,#258,#177,.T.);
#356=EDGE_CURVE('',#282,#285,#178,.T.);
#357=EDGE_CURVE('',#286,#285,#179,.T.);
#358=EDGE_CURVE('',#247,#286,#180,.T.);
#359=EDGE_CURVE('',#287,#255,#181,.T.);
#360=EDGE_CURVE('',#287,#257,#182,.T.);
#361=EDGE_CURVE('',#241,#286,#183,.T.);
#362=EDGE_CURVE('',#254,#288,#184,.T.);
#363=EDGE_CURVE('',#288,#289,#185,.T.);
#364=EDGE_CURVE('',#289,#287,#186,.T.);
#365=EDGE_CURVE('',#242,#290,#187,.T.);
#366=EDGE_CURVE('',#290,#288,#188,.T.);
#367=EDGE_CURVE('',#285,#290,#189,.T.);
#368=EDGE_CURVE('',#289,#284,#190,.T.);
#369=ORIENTED_EDGE('',*,*,#291,.T.);
#370=ORIENTED_EDGE('',*,*,#292,.T.);
#371=ORIENTED_EDGE('',*,*,#293,.T.);
#372=ORIENTED_EDGE('',*,*,#294,.T.);
#373=ORIENTED_EDGE('',*,*,#295,.T.);
#374=ORIENTED_EDGE('',*,*,#296,.T.);
#375=ORIENTED_EDGE('',*,*,#291,.F.);
#376=ORIENTED_EDGE('',*,*,#297,.F.);
#377=ORIENTED_EDGE('',*,*,#298,.T.);
#378=ORIENTED_EDGE('',*,*,#299,.T.);
#379=ORIENTED_EDGE('',*,*,#300,.T.);
#380=ORIENTED_EDGE('',*,*,#296,.F.);
#381=ORIENTED_EDGE('',*,*,#301,.T.);
#382=ORIENTED_EDGE('',*,*,#302,.F.);
#383=ORIENTED_EDGE('',*,*,#303,.F.);
#384=ORIENTED_EDGE('',*,*,#304,.T.);
#385=ORIENTED_EDGE('',*,*,#297,.T.);
#386=ORIENTED_EDGE('',*,*,#295,.F.);
#387=ORIENTED_EDGE('',*,*,#305,.F.);
#388=ORIENTED_EDGE('',*,*,#306,.F.);
#389=ORIENTED_EDGE('',*,*,#301,.F.);
#390=ORIENTED_EDGE('',*,*,#307,.F.);
#391=ORIENTED_EDGE('',*,*,#308,.F.);
#392=ORIENTED_EDGE('',*,*,#309,.T.);
#393=ORIENTED_EDGE('',*,*,#310,.T.);
#394=ORIENTED_EDGE('',*,*,#311,.T.);
#395=ORIENTED_EDGE('',*,*,#302,.T.);
#396=ORIENTED_EDGE('',*,*,#306,.T.);
#397=ORIENTED_EDGE('',*,*,#312,.T.);
#398=ORIENTED_EDGE('',*,*,#311,.F.);
#399=ORIENTED_EDGE('',*,*,#313,.T.);
#400=ORIENTED_EDGE('',*,*,#314,.T.);
#401=ORIENTED_EDGE('',*,*,#315,.T.);
#402=ORIENTED_EDGE('',*,*,#303,.T.);
#403=ORIENTED_EDGE('',*,*,#308,.T.);
#404=ORIENTED_EDGE('',*,*,#316,.T.);
#405=ORIENTED_EDGE('',*,*,#317,.T.);
#406=ORIENTED_EDGE('',*,*,#318,.T.);
#407=ORIENTED_EDGE('',*,*,#316,.F.);
#408=ORIENTED_EDGE('',*,*,#318,.F.);
#409=ORIENTED_EDGE('',*,*,#319,.T.);
#410=ORIENTED_EDGE('',*,*,#320,.T.);
#411=ORIENTED_EDGE('',*,*,#319,.F.);
#412=ORIENTED_EDGE('',*,*,#317,.F.);
#413=ORIENTED_EDGE('',*,*,#307,.T.);
#414=ORIENTED_EDGE('',*,*,#321,.T.);
#415=ORIENTED_EDGE('',*,*,#322,.T.);
#416=ORIENTED_EDGE('',*,*,#323,.T.);
#417=ORIENTED_EDGE('',*,*,#321,.F.);
#418=ORIENTED_EDGE('',*,*,#323,.F.);
#419=ORIENTED_EDGE('',*,*,#324,.T.);
#420=ORIENTED_EDGE('',*,*,#325,.T.);
#421=ORIENTED_EDGE('',*,*,#324,.F.);
#422=ORIENTED_EDGE('',*,*,#322,.F.);
#423=ORIENTED_EDGE('',*,*,#326,.T.);
#424=ORIENTED_EDGE('',*,*,#327,.T.);
#425=ORIENTED_EDGE('',*,*,#328,.T.);
#426=ORIENTED_EDGE('',*,*,#329,.T.);
#427=ORIENTED_EDGE('',*,*,#327,.F.);
#428=ORIENTED_EDGE('',*,*,#326,.F.);
#429=ORIENTED_EDGE('',*,*,#330,.T.);
#430=ORIENTED_EDGE('',*,*,#331,.T.);
#431=ORIENTED_EDGE('',*,*,#328,.F.);
#432=ORIENTED_EDGE('',*,*,#329,.F.);
#433=ORIENTED_EDGE('',*,*,#331,.F.);
#434=ORIENTED_EDGE('',*,*,#332,.T.);
#435=ORIENTED_EDGE('',*,*,#333,.T.);
#436=ORIENTED_EDGE('',*,*,#334,.T.);
#437=ORIENTED_EDGE('',*,*,#335,.T.);
#438=ORIENTED_EDGE('',*,*,#333,.F.);
#439=ORIENTED_EDGE('',*,*,#332,.F.);
#440=ORIENTED_EDGE('',*,*,#336,.T.);
#441=ORIENTED_EDGE('',*,*,#337,.T.);
#442=ORIENTED_EDGE('',*,*,#334,.F.);
#443=ORIENTED_EDGE('',*,*,#335,.F.);
#444=ORIENTED_EDGE('',*,*,#337,.F.);
#445=ORIENTED_EDGE('',*,*,#338,.T.);
#446=ORIENTED_EDGE('',*,*,#339,.T.);
#447=ORIENTED_EDGE('',*,*,#340,.T.);
#448=ORIENTED_EDGE('',*,*,#341,.T.);
#449=ORIENTED_EDGE('',*,*,#339,.F.);
#450=ORIENTED_EDGE('',*,*,#338,.F.);
#451=ORIENTED_EDGE('',*,*,#342,.T.);
#452=ORIENTED_EDGE('',*,*,#343,.T.);
#453=ORIENTED_EDGE('',*,*,#340,.F.);
#454=ORIENTED_EDGE('',*,*,#341,.F.);
#455=ORIENTED_EDGE('',*,*,#343,.F.);
#456=ORIENTED_EDGE('',*,*,#344,.T.);
#457=ORIENTED_EDGE('',*,*,#345,.T.);
#458=ORIENTED_EDGE('',*,*,#346,.T.);
#459=ORIENTED_EDGE('',*,*,#347,.T.);
#460=ORIENTED_EDGE('',*,*,#345,.F.);
#461=ORIENTED_EDGE('',*,*,#344,.F.);
#462=ORIENTED_EDGE('',*,*,#348,.T.);
#463=ORIENTED_EDGE('',*,*,#349,.T.);
#464=ORIENTED_EDGE('',*,*,#346,.F.);
#465=ORIENTED_EDGE('',*,*,#347,.F.);
#466=ORIENTED_EDGE('',*,*,#349,.F.);
#467=ORIENTED_EDGE('',*,*,#350,.F.);
#468=ORIENTED_EDGE('',*,*,#351,.F.);
#469=ORIENTED_EDGE('',*,*,#352,.F.);
#470=ORIENTED_EDGE('',*,*,#353,.F.);
#471=ORIENTED_EDGE('',*,*,#342,.F.);
#472=ORIENTED_EDGE('',*,*,#336,.F.);
#473=ORIENTED_EDGE('',*,*,#348,.F.);
#474=ORIENTED_EDGE('',*,*,#330,.F.);
#475=ORIENTED_EDGE('',*,*,#351,.T.);
#476=ORIENTED_EDGE('',*,*,#354,.F.);
#477=ORIENTED_EDGE('',*,*,#298,.F.);
#478=ORIENTED_EDGE('',*,*,#304,.F.);
#479=ORIENTED_EDGE('',*,*,#315,.F.);
#480=ORIENTED_EDGE('',*,*,#355,.F.);
#481=ORIENTED_EDGE('',*,*,#350,.T.);
#482=ORIENTED_EDGE('',*,*,#356,.T.);
#483=ORIENTED_EDGE('',*,*,#357,.F.);
#484=ORIENTED_EDGE('',*,*,#358,.F.);
#485=ORIENTED_EDGE('',*,*,#299,.F.);
#486=ORIENTED_EDGE('',*,*,#354,.T.);
#487=ORIENTED_EDGE('',*,*,#320,.F.);
#488=ORIENTED_EDGE('',*,*,#325,.F.);
#489=ORIENTED_EDGE('',*,*,#310,.F.);
#490=ORIENTED_EDGE('',*,*,#359,.F.);
#491=ORIENTED_EDGE('',*,*,#360,.T.);
#492=ORIENTED_EDGE('',*,*,#313,.F.);
#493=ORIENTED_EDGE('',*,*,#292,.F.);
#494=ORIENTED_EDGE('',*,*,#300,.F.);
#495=ORIENTED_EDGE('',*,*,#358,.T.);
#496=ORIENTED_EDGE('',*,*,#361,.F.);
#497=ORIENTED_EDGE('',*,*,#309,.F.);
#498=ORIENTED_EDGE('',*,*,#362,.T.);
#499=ORIENTED_EDGE('',*,*,#363,.T.);
#500=ORIENTED_EDGE('',*,*,#364,.T.);
#501=ORIENTED_EDGE('',*,*,#359,.T.);
#502=ORIENTED_EDGE('',*,*,#294,.F.);
#503=ORIENTED_EDGE('',*,*,#365,.T.);
#504=ORIENTED_EDGE('',*,*,#366,.T.);
#505=ORIENTED_EDGE('',*,*,#362,.F.);
#506=ORIENTED_EDGE('',*,*,#312,.F.);
#507=ORIENTED_EDGE('',*,*,#305,.T.);
#508=ORIENTED_EDGE('',*,*,#293,.F.);
#509=ORIENTED_EDGE('',*,*,#361,.T.);
#510=ORIENTED_EDGE('',*,*,#357,.T.);
#511=ORIENTED_EDGE('',*,*,#367,.T.);
#512=ORIENTED_EDGE('',*,*,#365,.F.);
#513=ORIENTED_EDGE('',*,*,#352,.T.);
#514=ORIENTED_EDGE('',*,*,#355,.T.);
#515=ORIENTED_EDGE('',*,*,#314,.F.);
#516=ORIENTED_EDGE('',*,*,#360,.F.);
#517=ORIENTED_EDGE('',*,*,#364,.F.);
#518=ORIENTED_EDGE('',*,*,#368,.T.);
#519=ORIENTED_EDGE('',*,*,#353,.T.);
#520=ORIENTED_EDGE('',*,*,#368,.F.);
#521=ORIENTED_EDGE('',*,*,#363,.F.);
#522=ORIENTED_EDGE('',*,*,#366,.F.);
#523=ORIENTED_EDGE('',*,*,#367,.F.);
#524=ORIENTED_EDGE('',*,*,#356,.F.);
#525=CYLINDRICAL_SURFACE('',#581,5.);
#526=CYLINDRICAL_SURFACE('',#592,5.);
#527=CYLINDRICAL_SURFACE('',#601,5.02);
#528=CYLINDRICAL_SURFACE('',#607,5.02);
#529=CYLINDRICAL_SURFACE('',#615,3.225);
#530=CYLINDRICAL_SURFACE('',#623,3.225);
#531=CYLINDRICAL_SURFACE('',#631,3.225);
#532=CYLINDRICAL_SURFACE('',#639,3.225);
#533=ADVANCED_FACE('',(#77),#525,.T.);
#534=ADVANCED_FACE('',(#78),#57,.T.);
#535=ADVANCED_FACE('',(#79),#58,.T.);
#536=ADVANCED_FACE('',(#80,#21,#22),#59,.T.);
#537=ADVANCED_FACE('',(#81),#526,.T.);
#538=ADVANCED_FACE('',(#82),#60,.T.);
#539=ADVANCED_FACE('',(#83),#15,.T.);
#540=ADVANCED_FACE('',(#84),#527,.F.);
#541=ADVANCED_FACE('',(#85),#16,.T.);
#542=ADVANCED_FACE('',(#86),#528,.F.);
#543=ADVANCED_FACE('',(#87),#17,.F.);
#544=ADVANCED_FACE('',(#88),#61,.T.);
#545=ADVANCED_FACE('',(#89),#529,.F.);
#546=ADVANCED_FACE('',(#90),#18,.F.);
#547=ADVANCED_FACE('',(#91),#62,.T.);
#548=ADVANCED_FACE('',(#92),#530,.F.);
#549=ADVANCED_FACE('',(#93),#19,.F.);
#550=ADVANCED_FACE('',(#94),#63,.T.);
#551=ADVANCED_FACE('',(#95),#531,.F.);
#552=ADVANCED_FACE('',(#96),#20,.F.);
#553=ADVANCED_FACE('',(#97),#64,.T.);
#554=ADVANCED_FACE('',(#98),#532,.F.);
#555=ADVANCED_FACE('',(#99,#23,#24,#25,#26),#65,.T.);
#556=ADVANCED_FACE('',(#100),#66,.T.);
#557=ADVANCED_FACE('',(#101),#67,.F.);
#558=ADVANCED_FACE('',(#102),#68,.T.);
#559=ADVANCED_FACE('',(#103),#69,.T.);
#560=ADVANCED_FACE('',(#104),#70,.T.);
#561=ADVANCED_FACE('',(#105),#71,.T.);
#562=ADVANCED_FACE('',(#106),#72,.T.);
#563=ADVANCED_FACE('',(#107),#73,.T.);
#564=ADVANCED_FACE('',(#108),#74,.T.);
#565=ADVANCED_FACE('',(#109),#75,.T.);
#566=ADVANCED_FACE('',(#110),#76,.T.);
#567=CLOSED_SHELL('',(#533,#534,#535,#536,#537,#538,#539,#540,#541,#542,
#543,#544,#545,#546,#547,#548,#549,#550,#551,#552,#553,#554,#555,#556,#557,
#558,#559,#560,#561,#562,#563,#564,#565,#566));
#568=DERIVED_UNIT_ELEMENT(#570,1.);
#569=DERIVED_UNIT_ELEMENT(#1009,-3.);
#570=(
MASS_UNIT()
NAMED_UNIT(*)
SI_UNIT(.KILO.,.GRAM.)
);
#571=DERIVED_UNIT((#568,#569));
#572=MEASURE_REPRESENTATION_ITEM('density measure',
POSITIVE_RATIO_MEASURE(7850.),#571);
#573=PROPERTY_DEFINITION_REPRESENTATION(#578,#575);
#574=PROPERTY_DEFINITION_REPRESENTATION(#579,#576);
#575=REPRESENTATION('material name',(#577),#1006);
#576=REPRESENTATION('density',(#572),#1006);
#577=DESCRIPTIVE_REPRESENTATION_ITEM('Steel','Steel');
#578=PROPERTY_DEFINITION('material property','material name',#1016);
#579=PROPERTY_DEFINITION('material property','density of part',#1016);
#580=AXIS2_PLACEMENT_3D('',#839,#653,#654);
#581=AXIS2_PLACEMENT_3D('',#840,#655,#656);
#582=AXIS2_PLACEMENT_3D('',#843,#657,#658);
#583=AXIS2_PLACEMENT_3D('',#847,#660,#661);
#584=AXIS2_PLACEMENT_3D('',#849,#662,#663);
#585=AXIS2_PLACEMENT_3D('',#852,#665,#666);
#586=AXIS2_PLACEMENT_3D('',#853,#667,#668);
#587=AXIS2_PLACEMENT_3D('',#861,#673,#674);
#588=AXIS2_PLACEMENT_3D('',#865,#676,#677);
#589=AXIS2_PLACEMENT_3D('',#869,#680,#681);
#590=AXIS2_PLACEMENT_3D('',#874,#684,#685);
#591=AXIS2_PLACEMENT_3D('',#876,#686,#687);
#592=AXIS2_PLACEMENT_3D('',#877,#688,#689);
#593=AXIS2_PLACEMENT_3D('',#880,#690,#691);
#594=AXIS2_PLACEMENT_3D('',#883,#693,#694);
#595=AXIS2_PLACEMENT_3D('',#884,#695,#696);
#596=AXIS2_PLACEMENT_3D('',#885,#697,#698);
#597=AXIS2_PLACEMENT_3D('',#891,#702,#703);
#598=AXIS2_PLACEMENT_3D('',#893,#704,#705);
#599=AXIS2_PLACEMENT_3D('',#895,#706,#707);
#600=AXIS2_PLACEMENT_3D('',#896,#708,#709);
#601=AXIS2_PLACEMENT_3D('',#897,#710,#711);
#602=AXIS2_PLACEMENT_3D('',#900,#713,#714);
#603=AXIS2_PLACEMENT_3D('',#901,#715,#716);
#604=AXIS2_PLACEMENT_3D('',#903,#717,#718);
#605=AXIS2_PLACEMENT_3D('',#905,#719,#720);
#606=AXIS2_PLACEMENT_3D('',#906,#721,#722);
#607=AXIS2_PLACEMENT_3D('',#907,#723,#724);
#608=AXIS2_PLACEMENT_3D('',#910,#726,#727);
#609=AXIS2_PLACEMENT_3D('',#911,#728,#729);
#610=AXIS2_PLACEMENT_3D('',#913,#730,#731);
#611=AXIS2_PLACEMENT_3D('',#915,#732,#733);
#612=AXIS2_PLACEMENT_3D('',#917,#734,#735);
#613=AXIS2_PLACEMENT_3D('',#918,#736,#737);
#614=AXIS2_PLACEMENT_3D('',#919,#738,#739);
#615=AXIS2_PLACEMENT_3D('',#920,#740,#741);
#616=AXIS2_PLACEMENT_3D('',#922,#742,#743);
#617=AXIS2_PLACEMENT_3D('',#924,#745,#746);
#618=AXIS2_PLACEMENT_3D('',#926,#747,#748);
#619=AXIS2_PLACEMENT_3D('',#928,#749,#750);
#620=AXIS2_PLACEMENT_3D('',#930,#751,#752);
#621=AXIS2_PLACEMENT_3D('',#931,#753,#754);
#622=AXIS2_PLACEMENT_3D('',#932,#755,#756);
#623=AXIS2_PLACEMENT_3D('',#933,#757,#758);
#624=AXIS2_PLACEMENT_3D('',#935,#759,#760);
#625=AXIS2_PLACEMENT_3D('',#937,#762,#763);
#626=AXIS2_PLACEMENT_3D('',#939,#764,#765);
#627=AXIS2_PLACEMENT_3D('',#941,#766,#767);
#628=AXIS2_PLACEMENT_3D('',#943,#768,#769);
#629=AXIS2_PLACEMENT_3D('',#944,#770,#771);
#630=AXIS2_PLACEMENT_3D('',#945,#772,#773);
#631=AXIS2_PLACEMENT_3D('',#946,#774,#775);
#632=AXIS2_PLACEMENT_3D('',#948,#776,#777);
#633=AXIS2_PLACEMENT_3D('',#950,#779,#780);
#634=AXIS2_PLACEMENT_3D('',#952,#781,#782);
#635=AXIS2_PLACEMENT_3D('',#954,#783,#784);
#636=AXIS2_PLACEMENT_3D('',#956,#785,#786);
#637=AXIS2_PLACEMENT_3D('',#957,#787,#788);
#638=AXIS2_PLACEMENT_3D('',#958,#789,#790);
#639=AXIS2_PLACEMENT_3D('',#959,#791,#792);
#640=AXIS2_PLACEMENT_3D('',#961,#793,#794);
#641=AXIS2_PLACEMENT_3D('',#963,#796,#797);
#642=AXIS2_PLACEMENT_3D('',#972,#802,#803);
#643=AXIS2_PLACEMENT_3D('',#975,#806,#807);
#644=AXIS2_PLACEMENT_3D('',#981,#811,#812);
#645=AXIS2_PLACEMENT_3D('',#982,#813,#814);
#646=AXIS2_PLACEMENT_3D('',#983,#815,#816);
#647=AXIS2_PLACEMENT_3D('',#987,#819,#820);
#648=AXIS2_PLACEMENT_3D('',#989,#822,#823);
#649=AXIS2_PLACEMENT_3D('',#995,#827,#828);
#650=AXIS2_PLACEMENT_3D('',#999,#831,#832);
#651=AXIS2_PLACEMENT_3D('',#1001,#834,#835);
#652=AXIS2_PLACEMENT_3D('',#1003,#837,#838);
#653=DIRECTION('axis',(0.,0.,1.));
#654=DIRECTION('refdir',(1.,0.,0.));
#655=DIRECTION('center_axis',(1.,0.,0.));
#656=DIRECTION('ref_axis',(0.,-0.38268343236509,-0.923879532511287));
#657=DIRECTION('center_axis',(-0.707106781186547,0.5,0.5));
#658=DIRECTION('ref_axis',(-0.707106781186548,-0.5,-0.5));
#659=DIRECTION('',(-1.,0.,0.));
#660=DIRECTION('center_axis',(0.707106781186548,0.5,0.5));
#661=DIRECTION('ref_axis',(0.707106781186547,-0.5,-0.5));
#662=DIRECTION('center_axis',(0.707106781186548,0.,0.707106781186547));
#663=DIRECTION('ref_axis',(0.707106781186547,3.92523114670944E-17,-0.707106781186548));
#664=DIRECTION('',(1.,0.,0.));
#665=DIRECTION('center_axis',(-0.707106781186548,0.,0.707106781186548));
#666=DIRECTION('ref_axis',(-0.707106781186547,7.85046229341887E-17,-0.707106781186547));
#667=DIRECTION('center_axis',(0.707106781186547,-0.5,-0.5));
#668=DIRECTION('ref_axis',(-0.577350269189626,0.,-0.816496580927726));
#669=DIRECTION('',(-0.678598344545847,-0.28108463771482,-0.678598344545847));
#670=DIRECTION('',(0.,-0.707106781186548,0.707106781186548));
#671=DIRECTION('',(-0.577350269189626,0.,-0.816496580927726));
#672=DIRECTION('',(0.,0.707106781186548,-0.707106781186548));
#673=DIRECTION('center_axis',(0.707106781186548,0.,-0.707106781186548));
#674=DIRECTION('ref_axis',(-0.707106781186548,0.,-0.707106781186548));
#675=DIRECTION('',(0.,1.,0.));
#676=DIRECTION('center_axis',(-0.707106781186548,0.,0.707106781186548));
#677=DIRECTION('ref_axis',(-0.707106781186547,0.,-0.707106781186547));
#678=DIRECTION('',(-0.678598344545847,0.281084637714821,-0.678598344545847));
#679=DIRECTION('',(0.,-1.,0.));
#680=DIRECTION('center_axis',(0.,0.,-1.));
#681=DIRECTION('ref_axis',(-1.,0.,0.));
#682=DIRECTION('',(0.,-1.,0.));
#683=DIRECTION('',(-1.,0.,0.));
#684=DIRECTION('center_axis',(0.,0.,-1.));
#685=DIRECTION('ref_axis',(-1.,0.,0.));
#686=DIRECTION('center_axis',(0.,0.,-1.));
#687=DIRECTION('ref_axis',(-1.,0.,0.));
#688=DIRECTION('center_axis',(-1.,0.,0.));
#689=DIRECTION('ref_axis',(0.,0.38268343236509,-0.923879532511287));
#690=DIRECTION('center_axis',(0.707106781186548,-0.5,0.5));
#691=DIRECTION('ref_axis',(0.707106781186547,0.5,-0.5));
#692=DIRECTION('',(1.,0.,0.));
#693=DIRECTION('center_axis',(-0.707106781186548,-0.5,0.5));
#694=DIRECTION('ref_axis',(-0.707106781186547,0.5,-0.5));
#695=DIRECTION('center_axis',(0.707106781186548,0.,0.707106781186547));
#696=DIRECTION('ref_axis',(0.707106781186547,0.,-0.707106781186548));
#697=DIRECTION('center_axis',(0.707106781186548,0.5,-0.5));
#698=DIRECTION('ref_axis',(-0.577350269189626,0.,-0.816496580927726));
#699=DIRECTION('',(0.,0.707106781186547,0.707106781186548));
#700=DIRECTION('',(0.577350269189626,0.,0.816496580927726));
#701=DIRECTION('',(0.,-0.707106781186547,-0.707106781186548));
#702=DIRECTION('center_axis',(0.,0.,1.));
#703=DIRECTION('ref_axis',(1.,0.,0.));
#704=DIRECTION('center_axis',(0.,-1.,0.));
#705=DIRECTION('ref_axis',(-1.,0.,0.));
#706=DIRECTION('center_axis',(0.,0.,1.));
#707=DIRECTION('ref_axis',(-1.,0.,0.));
#708=DIRECTION('center_axis',(0.,0.,1.));
#709=DIRECTION('ref_axis',(-1.,0.,0.));
#710=DIRECTION('center_axis',(0.,0.,1.));
#711=DIRECTION('ref_axis',(-1.,0.,0.));
#712=DIRECTION('',(0.,0.,1.));
#713=DIRECTION('center_axis',(0.,0.,1.));
#714=DIRECTION('ref_axis',(-1.,0.,0.));
#715=DIRECTION('center_axis',(0.,0.,1.));
#716=DIRECTION('ref_axis',(1.,0.,0.));
#717=DIRECTION('center_axis',(0.,-1.,0.));
#718=DIRECTION('ref_axis',(-1.,0.,0.));
#719=DIRECTION('center_axis',(0.,0.,1.));
#720=DIRECTION('ref_axis',(-1.,0.,0.));
#721=DIRECTION('center_axis',(0.,0.,1.));
#722=DIRECTION('ref_axis',(-1.,0.,0.));
#723=DIRECTION('center_axis',(0.,0.,1.));
#724=DIRECTION('ref_axis',(-1.,0.,0.));
#725=DIRECTION('',(0.,0.,1.));
#726=DIRECTION('center_axis',(0.,0.,1.));
#727=DIRECTION('ref_axis',(-1.,0.,0.));
#728=DIRECTION('center_axis',(0.,0.,-1.));
#729=DIRECTION('ref_axis',(-1.,0.,0.));
#730=DIRECTION('center_axis',(0.,0.,-1.));
#731=DIRECTION('ref_axis',(1.,0.,0.));
#732=DIRECTION('center_axis',(0.,-1.,0.));
#733=DIRECTION('ref_axis',(1.,0.,0.));
#734=DIRECTION('center_axis',(0.,0.,1.));
#735=DIRECTION('ref_axis',(1.,0.,0.));
#736=DIRECTION('center_axis',(0.,0.,1.));
#737=DIRECTION('ref_axis',(1.,0.,0.));
#738=DIRECTION('center_axis',(0.,0.,1.));
#739=DIRECTION('ref_axis',(1.,0.,0.));
#740=DIRECTION('center_axis',(0.,0.,-1.));
#741=DIRECTION('ref_axis',(1.,0.,0.));
#742=DIRECTION('center_axis',(0.,0.,1.));
#743=DIRECTION('ref_axis',(1.,0.,0.));
#744=DIRECTION('',(0.,0.,-1.));
#745=DIRECTION('center_axis',(0.,0.,-1.));
#746=DIRECTION('ref_axis',(-1.,0.,0.));
#747=DIRECTION('center_axis',(0.,0.,-1.));
#748=DIRECTION('ref_axis',(1.,0.,0.));
#749=DIRECTION('center_axis',(0.,-1.,0.));
#750=DIRECTION('ref_axis',(1.,0.,0.));
#751=DIRECTION('center_axis',(0.,0.,1.));
#752=DIRECTION('ref_axis',(1.,0.,0.));
#753=DIRECTION('center_axis',(0.,0.,1.));
#754=DIRECTION('ref_axis',(1.,0.,0.));
#755=DIRECTION('center_axis',(0.,0.,1.));
#756=DIRECTION('ref_axis',(1.,0.,0.));
#757=DIRECTION('center_axis',(0.,0.,-1.));
#758=DIRECTION('ref_axis',(1.,0.,0.));
#759=DIRECTION('center_axis',(0.,0.,1.));
#760=DIRECTION('ref_axis',(1.,0.,0.));
#761=DIRECTION('',(0.,0.,-1.));
#762=DIRECTION('center_axis',(0.,0.,-1.));
#763=DIRECTION('ref_axis',(-1.,0.,0.));
#764=DIRECTION('center_axis',(0.,0.,-1.));
#765=DIRECTION('ref_axis',(1.,0.,0.));
#766=DIRECTION('center_axis',(0.,-1.,0.));
#767=DIRECTION('ref_axis',(1.,0.,0.));
#768=DIRECTION('center_axis',(0.,0.,1.));
#769=DIRECTION('ref_axis',(1.,0.,0.));
#770=DIRECTION('center_axis',(0.,0.,1.));
#771=DIRECTION('ref_axis',(1.,0.,0.));
#772=DIRECTION('center_axis',(0.,0.,1.));
#773=DIRECTION('ref_axis',(1.,0.,0.));
#774=DIRECTION('center_axis',(0.,0.,-1.));
#775=DIRECTION('ref_axis',(1.,0.,0.));
#776=DIRECTION('center_axis',(0.,0.,1.));
#777=DIRECTION('ref_axis',(1.,0.,0.));
#778=DIRECTION('',(0.,0.,-1.));
#779=DIRECTION('center_axis',(0.,0.,-1.));
#780=DIRECTION('ref_axis',(-1.,0.,0.));
#781=DIRECTION('center_axis',(0.,0.,-1.));
#782=DIRECTION('ref_axis',(1.,0.,0.));
#783=DIRECTION('center_axis',(0.,-1.,0.));
#784=DIRECTION('ref_axis',(1.,0.,0.));
#785=DIRECTION('center_axis',(0.,0.,1.));
#786=DIRECTION('ref_axis',(1.,0.,0.));
#787=DIRECTION('center_axis',(0.,0.,1.));
#788=DIRECTION('ref_axis',(1.,0.,0.));
#789=DIRECTION('center_axis',(0.,0.,1.));
#790=DIRECTION('ref_axis',(1.,0.,0.));
#791=DIRECTION('center_axis',(0.,0.,-1.));
#792=DIRECTION('ref_axis',(1.,0.,0.));
#793=DIRECTION('center_axis',(0.,0.,1.));
#794=DIRECTION('ref_axis',(1.,0.,0.));
#795=DIRECTION('',(0.,0.,-1.));
#796=DIRECTION('center_axis',(0.,0.,1.));
#797=DIRECTION('ref_axis',(1.,0.,0.));
#798=DIRECTION('',(-1.,0.,0.));
#799=DIRECTION('',(0.,-1.,0.));
#800=DIRECTION('',(1.,0.,0.));
#801=DIRECTION('',(0.,1.,0.));
#802=DIRECTION('center_axis',(1.,0.,0.));
#803=DIRECTION('ref_axis',(0.,0.,-1.));
#804=DIRECTION('',(0.,0.,1.));
#805=DIRECTION('',(0.,0.,-1.));
#806=DIRECTION('center_axis',(0.,1.,0.));
#807=DIRECTION('ref_axis',(1.,0.,0.));
#808=DIRECTION('',(0.,0.,-1.));
#809=DIRECTION('',(-0.577350269189625,0.,0.816496580927726));
#810=DIRECTION('',(-1.,0.,0.));
#811=DIRECTION('center_axis',(0.,0.,-1.));
#812=DIRECTION('ref_axis',(-1.,0.,0.));
#813=DIRECTION('center_axis',(0.,0.,-1.));
#814=DIRECTION('ref_axis',(-1.,0.,0.));
#815=DIRECTION('center_axis',(0.,0.707106781186548,-0.707106781186547));
#816=DIRECTION('ref_axis',(-1.,0.,0.));
#817=DIRECTION('',(0.,-0.707106781186547,-0.707106781186548));
#818=DIRECTION('',(1.,0.,0.));
#819=DIRECTION('center_axis',(0.,-0.707106781186548,-0.707106781186548));
#820=DIRECTION('ref_axis',(-1.,0.,0.));
#821=DIRECTION('',(0.,-0.707106781186548,0.707106781186548));
#822=DIRECTION('center_axis',(-0.707106781186548,0.5,-0.5));
#823=DIRECTION('ref_axis',(-0.577350269189625,0.,0.816496580927726));
#824=DIRECTION('',(-0.678598344545847,-0.281084637714821,0.678598344545847));
#825=DIRECTION('',(0.,0.707106781186547,0.707106781186548));
#826=DIRECTION('',(0.577350269189625,0.,-0.816496580927726));
#827=DIRECTION('center_axis',(-0.707106781186548,0.,-0.707106781186547));
#828=DIRECTION('ref_axis',(-0.707106781186547,0.,0.707106781186548));
#829=DIRECTION('',(-0.678598344545847,0.281084637714821,0.678598344545847));
#830=DIRECTION('',(0.,1.,0.));
#831=DIRECTION('center_axis',(-0.707106781186548,-0.5,-0.5));
#832=DIRECTION('ref_axis',(-0.577350269189625,0.,0.816496580927726));
#833=DIRECTION('',(0.,0.707106781186548,-0.707106781186548));
#834=DIRECTION('center_axis',(0.,1.,0.));
#835=DIRECTION('ref_axis',(0.,0.,1.));
#836=DIRECTION('',(0.,0.,1.));
#837=DIRECTION('center_axis',(-1.,0.,0.));
#838=DIRECTION('ref_axis',(0.,0.,1.));
#839=CARTESIAN_POINT('',(0.,0.,0.));
#840=CARTESIAN_POINT('Origin',(5.125,10.0710678118655,10.));
#841=CARTESIAN_POINT('',(7.38060233744357,8.15765065004003,5.38060233744357));
#842=CARTESIAN_POINT('',(7.,6.53553390593274,6.46446609406726));
#843=CARTESIAN_POINT('Origin',(12.,10.0710678118655,10.));
#844=CARTESIAN_POINT('',(-26.,6.53553390593274,6.46446609406726));
#845=CARTESIAN_POINT('',(5.125,6.53553390593274,6.46446609406726));
#846=CARTESIAN_POINT('',(-26.3806023374436,8.15765065004003,5.38060233744357));
#847=CARTESIAN_POINT('Origin',(-31.,10.0710678118655,10.));
#848=CARTESIAN_POINT('',(-26.,10.0710678118655,5.));
#849=CARTESIAN_POINT('Origin',(-31.,10.0710678118655,10.));
#850=CARTESIAN_POINT('',(7.,10.0710678118655,5.));
#851=CARTESIAN_POINT('',(5.125,10.0710678118655,5.));
#852=CARTESIAN_POINT('Origin',(12.,10.0710678118655,10.));
#853=CARTESIAN_POINT('Origin',(8.5,1.31066017177982,13.8106601717798));
#854=CARTESIAN_POINT('',(10.,9.24264068711928,8.));
#855=CARTESIAN_POINT('',(10.,9.24264068711928,8.));
#856=CARTESIAN_POINT('',(10.,0.,17.2426406871193));
#857=CARTESIAN_POINT('',(10.,2.37132034355964,14.8713203435596));
#858=CARTESIAN_POINT('',(7.,0.,13.));
#859=CARTESIAN_POINT('',(4.57322330470336,-2.77555756156289E-16,9.56801948466054));
#860=CARTESIAN_POINT('',(7.,0.250000000000001,12.75));
#861=CARTESIAN_POINT('Origin',(8.5,0.,6.5));
#862=CARTESIAN_POINT('',(7.,29.9289321881345,5.));
#863=CARTESIAN_POINT('',(7.,0.,5.));
#864=CARTESIAN_POINT('',(7.38060233744357,31.84234934996,5.38060233744357));
#865=CARTESIAN_POINT('Origin',(12.,29.9289321881345,10.));
#866=CARTESIAN_POINT('',(10.,30.7573593128807,8.));
#867=CARTESIAN_POINT('',(10.,30.7573593128807,8.));
#868=CARTESIAN_POINT('',(10.,0.,8.));
#869=CARTESIAN_POINT('Origin',(10.,0.,5.));
#870=CARTESIAN_POINT('',(-26.,29.9289321881345,5.));
#871=CARTESIAN_POINT('',(-26.,0.,5.));
#872=CARTESIAN_POINT('',(5.125,29.9289321881345,5.));
#873=CARTESIAN_POINT('',(-4.31999997019768,20.0000002980232,5.));
#874=CARTESIAN_POINT('Origin',(1.00000002980232,20.0000002980232,5.));
#875=CARTESIAN_POINT('',(-25.3200000298023,20.0000002980232,5.));
#876=CARTESIAN_POINT('Origin',(-20.0000000298023,20.0000002980232,5.));
#877=CARTESIAN_POINT('Origin',(5.125,29.9289321881345,10.));
#878=CARTESIAN_POINT('',(-26.3806023374436,31.84234934996,5.38060233744357));
#879=CARTESIAN_POINT('',(-26.,33.4644660940673,6.46446609406726));
#880=CARTESIAN_POINT('Origin',(-31.,29.9289321881345,10.));
#881=CARTESIAN_POINT('',(7.,33.4644660940673,6.46446609406726));
#882=CARTESIAN_POINT('',(5.125,33.4644660940673,6.46446609406726));
#883=CARTESIAN_POINT('Origin',(12.,29.9289321881345,10.));
#884=CARTESIAN_POINT('Origin',(-31.,29.9289321881345,10.));
#885=CARTESIAN_POINT('Origin',(8.5,28.6893398282202,3.81066017177982));
#886=CARTESIAN_POINT('',(7.,40.,13.));
#887=CARTESIAN_POINT('',(7.,29.75,2.75));
#888=CARTESIAN_POINT('',(10.,40.,17.2426406871193));
#889=CARTESIAN_POINT('',(2.2162007007482,40.,6.2346861513272));
#890=CARTESIAN_POINT('',(10.,27.6286796564404,4.87132034355964));
#891=CARTESIAN_POINT('Origin',(-20.0000000298023,20.0000002980232,5.3));
#892=CARTESIAN_POINT('',(-25.0200000298023,20.0000002980232,5.3));
#893=CARTESIAN_POINT('Origin',(-25.3200000298023,20.0000002980232,5.3));
#894=CARTESIAN_POINT('',(-14.9800000298023,20.0000002980232,5.3));
#895=CARTESIAN_POINT('Origin',(-20.0000000298023,20.0000002980232,5.3));
#896=CARTESIAN_POINT('Origin',(-20.0000000298023,20.0000002980232,5.3));
#897=CARTESIAN_POINT('Origin',(-20.0000000298023,20.0000002980232,5.));
#898=CARTESIAN_POINT('',(-14.9800000298023,20.0000002980232,8.));
#899=CARTESIAN_POINT('',(-14.9800000298023,20.0000002980232,5.));
#900=CARTESIAN_POINT('Origin',(-20.0000000298023,20.0000002980232,8.));
#901=CARTESIAN_POINT('Origin',(1.00000002980232,20.0000002980232,5.3));
#902=CARTESIAN_POINT('',(-4.01999997019768,20.0000002980232,5.3));
#903=CARTESIAN_POINT('Origin',(-4.31999997019768,20.0000002980232,5.3));
#904=CARTESIAN_POINT('',(6.02000002980232,20.0000002980232,5.3));
#905=CARTESIAN_POINT('Origin',(1.00000002980232,20.0000002980232,5.3));
#906=CARTESIAN_POINT('Origin',(1.00000002980232,20.0000002980232,5.3));
#907=CARTESIAN_POINT('Origin',(1.00000002980232,20.0000002980232,5.));
#908=CARTESIAN_POINT('',(6.02000002980232,20.0000002980232,8.));
#909=CARTESIAN_POINT('',(6.02000002980232,20.0000002980232,5.));
#910=CARTESIAN_POINT('Origin',(1.00000002980232,20.0000002980232,8.));
#911=CARTESIAN_POINT('Origin',(4.5,6.,12.5));
#912=CARTESIAN_POINT('',(6.725,6.,11.5));
#913=CARTESIAN_POINT('Origin',(4.5,6.,11.5));
#914=CARTESIAN_POINT('',(7.725,6.,12.5));
#915=CARTESIAN_POINT('Origin',(6.725,6.,12.5));
#916=CARTESIAN_POINT('',(1.275,6.,12.5));
#917=CARTESIAN_POINT('Origin',(4.5,6.,12.5));
#918=CARTESIAN_POINT('Origin',(4.5,6.,12.5));
#919=CARTESIAN_POINT('Origin',(4.5,6.,11.5));
#920=CARTESIAN_POINT('Origin',(4.5,6.,20.));
#921=CARTESIAN_POINT('',(1.275,6.,18.));
#922=CARTESIAN_POINT('Origin',(4.5,6.,18.));
#923=CARTESIAN_POINT('',(1.275,6.,20.));
#924=CARTESIAN_POINT('Origin',(-23.5,6.,12.5));
#925=CARTESIAN_POINT('',(-21.275,6.,11.5));
#926=CARTESIAN_POINT('Origin',(-23.5,6.,11.5));
#927=CARTESIAN_POINT('',(-20.275,6.,12.5));
#928=CARTESIAN_POINT('Origin',(-21.275,6.,12.5));
#929=CARTESIAN_POINT('',(-26.725,6.,12.5));
#930=CARTESIAN_POINT('Origin',(-23.5,6.,12.5));
#931=CARTESIAN_POINT('Origin',(-23.5,6.,12.5));
#932=CARTESIAN_POINT('Origin',(-23.5,6.,11.5));
#933=CARTESIAN_POINT('Origin',(-23.5,6.,20.));
#934=CARTESIAN_POINT('',(-26.725,6.,18.));
#935=CARTESIAN_POINT('Origin',(-23.5,6.,18.));
#936=CARTESIAN_POINT('',(-26.725,6.,20.));
#937=CARTESIAN_POINT('Origin',(-23.5,34.,12.5));
#938=CARTESIAN_POINT('',(-21.275,34.,11.5));
#939=CARTESIAN_POINT('Origin',(-23.5,34.,11.5));
#940=CARTESIAN_POINT('',(-20.275,34.,12.5));
#941=CARTESIAN_POINT('Origin',(-21.275,34.,12.5));
#942=CARTESIAN_POINT('',(-26.725,34.,12.5));
#943=CARTESIAN_POINT('Origin',(-23.5,34.,12.5));
#944=CARTESIAN_POINT('Origin',(-23.5,34.,12.5));
#945=CARTESIAN_POINT('Origin',(-23.5,34.,11.5));
#946=CARTESIAN_POINT('Origin',(-23.5,34.,20.));
#947=CARTESIAN_POINT('',(-26.725,34.,18.));
#948=CARTESIAN_POINT('Origin',(-23.5,34.,18.));
#949=CARTESIAN_POINT('',(-26.725,34.,20.));
#950=CARTESIAN_POINT('Origin',(4.5,34.,12.5));
#951=CARTESIAN_POINT('',(6.725,34.,11.5));
#952=CARTESIAN_POINT('Origin',(4.5,34.,11.5));
#953=CARTESIAN_POINT('',(7.725,34.,12.5));
#954=CARTESIAN_POINT('Origin',(6.725,34.,12.5));
#955=CARTESIAN_POINT('',(1.275,34.,12.5));
#956=CARTESIAN_POINT('Origin',(4.5,34.,12.5));
#957=CARTESIAN_POINT('Origin',(4.5,34.,12.5));
#958=CARTESIAN_POINT('Origin',(4.5,34.,11.5));
#959=CARTESIAN_POINT('Origin',(4.5,34.,20.));
#960=CARTESIAN_POINT('',(1.275,34.,18.));
#961=CARTESIAN_POINT('Origin',(4.5,34.,18.));
#962=CARTESIAN_POINT('',(1.275,34.,20.));
#963=CARTESIAN_POINT('Origin',(-29.,0.,18.));
#964=CARTESIAN_POINT('',(10.,0.,18.));
#965=CARTESIAN_POINT('',(-29.,0.,18.));
#966=CARTESIAN_POINT('',(-19.25,0.,18.));
#967=CARTESIAN_POINT('',(10.,40.,18.));
#968=CARTESIAN_POINT('',(10.,0.,18.));
#969=CARTESIAN_POINT('',(-29.,40.,18.));
#970=CARTESIAN_POINT('',(-19.25,40.,18.));
#971=CARTESIAN_POINT('',(-29.,0.,18.));
#972=CARTESIAN_POINT('Origin',(10.,0.,20.));
#973=CARTESIAN_POINT('',(10.,0.,5.));
#974=CARTESIAN_POINT('',(10.,40.,5.));
#975=CARTESIAN_POINT('Origin',(-9.5,0.,12.5));
#976=CARTESIAN_POINT('',(-29.,0.,17.2426406871193));
#977=CARTESIAN_POINT('',(-29.,0.,20.));
#978=CARTESIAN_POINT('',(-26.,0.,13.));
#979=CARTESIAN_POINT('',(-22.6893398282202,0.,8.31801948466054));
#980=CARTESIAN_POINT('',(0.249999999999999,0.,13.));
#981=CARTESIAN_POINT('Origin',(-20.0000000298023,20.0000002980232,8.));
#982=CARTESIAN_POINT('Origin',(1.00000002980232,20.0000002980232,8.));
#983=CARTESIAN_POINT('Origin',(0.249999999999999,36.,9.));
#984=CARTESIAN_POINT('',(-26.,40.,13.));
#985=CARTESIAN_POINT('',(-26.,26.,-1.));
#986=CARTESIAN_POINT('',(0.249999999999999,40.,13.));
#987=CARTESIAN_POINT('Origin',(0.249999999999999,4.,9.));
#988=CARTESIAN_POINT('',(-26.,4.,9.));
#989=CARTESIAN_POINT('Origin',(-27.5,24.9393398282202,0.0606601717798222));
#990=CARTESIAN_POINT('',(-29.,30.7573593128807,8.));
#991=CARTESIAN_POINT('',(-26.,32.,5.));
#992=CARTESIAN_POINT('',(-29.,40.,17.2426406871193));
#993=CARTESIAN_POINT('',(-29.,23.8786796564404,1.12132034355964));
#994=CARTESIAN_POINT('',(-20.332317224265,40.,4.9846861513272));
#995=CARTESIAN_POINT('Origin',(-27.5,0.,6.5));
#996=CARTESIAN_POINT('',(-29.,9.24264068711929,8.));
#997=CARTESIAN_POINT('',(-26.,8.,5.));
#998=CARTESIAN_POINT('',(-29.,0.,8.));
#999=CARTESIAN_POINT('Origin',(-27.5,5.06066017177982,10.0606601717798));
#1000=CARTESIAN_POINT('',(-29.,6.12132034355964,11.1213203435596));
#1001=CARTESIAN_POINT('Origin',(-9.5,40.,12.5));
#1002=CARTESIAN_POINT('',(-29.,40.,20.));
#1003=CARTESIAN_POINT('Origin',(-29.,0.,5.));
#1004=UNCERTAINTY_MEASURE_WITH_UNIT(LENGTH_MEASURE(0.01),#1008,
'DISTANCE_ACCURACY_VALUE',
'Maximum model space distance between geometric entities at asserted c
onnectivities');
#1005=UNCERTAINTY_MEASURE_WITH_UNIT(LENGTH_MEASURE(0.01),#1008,
'DISTANCE_ACCURACY_VALUE',
'Maximum model space distance between geometric entities at asserted c
onnectivities');
#1006=(
GEOMETRIC_REPRESENTATION_CONTEXT(3)
GLOBAL_UNCERTAINTY_ASSIGNED_CONTEXT((#1004))
GLOBAL_UNIT_ASSIGNED_CONTEXT((#1008,#1010,#1011))
REPRESENTATION_CONTEXT('','3D')
);
#1007=(
GEOMETRIC_REPRESENTATION_CONTEXT(3)
GLOBAL_UNCERTAINTY_ASSIGNED_CONTEXT((#1005))
GLOBAL_UNIT_ASSIGNED_CONTEXT((#1008,#1010,#1011))
REPRESENTATION_CONTEXT('','3D')
);
#1008=(
LENGTH_UNIT()
NAMED_UNIT(*)
SI_UNIT(.MILLI.,.METRE.)
);
#1009=(
LENGTH_UNIT()
NAMED_UNIT(*)
SI_UNIT($,.METRE.)
);
#1010=(
NAMED_UNIT(*)
PLANE_ANGLE_UNIT()
SI_UNIT($,.RADIAN.)
);
#1011=(
NAMED_UNIT(*)
SI_UNIT($,.STERADIAN.)
SOLID_ANGLE_UNIT()
);
#1012=SHAPE_DEFINITION_REPRESENTATION(#1013,#1014);
#1013=PRODUCT_DEFINITION_SHAPE('',$,#1016);
#1014=SHAPE_REPRESENTATION('',(#580),#1006);
#1015=PRODUCT_DEFINITION_CONTEXT('part definition',#1020,'design');
#1016=PRODUCT_DEFINITION('2026-09-25-01-20-45-997',
'Gondola Sliding system',#1017,#1015);
#1017=PRODUCT_DEFINITION_FORMATION('',$,#1022);
#1018=PRODUCT_RELATED_PRODUCT_CATEGORY('Gondola Sliding system',
'Gondola Sliding system',(#1022));
#1019=APPLICATION_PROTOCOL_DEFINITION('international standard',
'automotive_design',2009,#1020);
#1020=APPLICATION_CONTEXT(
'Core Data for Automotive Mechanical Design Process');
#1021=PRODUCT_CONTEXT('part definition',#1020,'mechanical');
#1022=PRODUCT('2026-09-25-01-20-45-997','Gondola Sliding system',$,(#1021));
#1023=PRESENTATION_STYLE_ASSIGNMENT((#1024));
#1024=SURFACE_STYLE_USAGE(.BOTH.,#1025);
#1025=SURFACE_SIDE_STYLE('',(#1026));
#1026=SURFACE_STYLE_FILL_AREA(#1027);
#1027=FILL_AREA_STYLE('Steel - Satin',(#1028));
#1028=FILL_AREA_STYLE_COLOUR('Steel - Satin',#1029);
#1029=COLOUR_RGB('Steel - Satin',0.627450980392157,0.627450980392157,0.627450980392157);
ENDSEC;
END-ISO-10303-21;
